<svg xmlns="http://www.w3.org/2000/svg" xmlns:v="https://svgstorm.com"
viewBox = "0 0 1024 1024"
width="1024"
height="1024">
<g fill="None" fill-opacity="0.0" stroke="#FEFEFE" stroke-opacity="1.00" stroke-width="0.3"><path d="
M 0.00 1024.00 
L 1024.00 1024.00
L 1024.00 0.00
L 0.00 0.00
L 0.00 1024.00
M 421.00 283.00 
C 424.08 282.70 428.25 282.00 432.00 282.00
C 436.00 282.00 440.00 282.00 444.00 282.00
C 439.64 293.67 433.52 304.72 428.00 316.00
C 409.14 316.56 388.19 319.00 369.93 320.93 C 351.67 322.85 330.65 324.67 313.78 328.78 C 296.91 332.88 294.67 351.07 283.00 362.00
C 325.56 353.72 368.81 347.96 413.00 346.00
C 409.01 358.13 401.54 369.05 397.00 381.00
C 382.16 381.43 366.47 383.52 352.00 385.00 C 337.53 386.48 321.74 388.09 307.99 390.99 C 294.24 393.89 280.70 395.43 267.93 399.93 C 255.15 404.42 257.06 422.53 251.00 433.00
C 293.46 421.58 336.91 413.38 382.00 412.00
C 379.33 423.11 373.10 427.25 369.70 438.70 C 366.29 450.14 351.70 447.33 341.00 449.00 C 330.30 450.67 317.81 451.81 307.33 454.33 C 296.85 456.85 284.98 457.63 274.99 460.99 C 265.00 464.36 254.42 465.23 245.31 470.31 C 236.19 475.38 240.05 494.01 238.00 503.00
C 274.29 490.10 311.87 480.68 351.00 478.00
C 345.64 489.95 339.89 502.08 334.00 514.00
C 329.01 524.66 324.10 535.68 319.00 546.00
C 309.01 566.19 301.00 587.78 291.00 608.00
C 291.62 607.54 301.68 606.23 305.07 606.07 C 308.47 605.92 322.20 603.57 323.00 606.00
C 387.04 476.49 451.85 345.49 517.00 217.00
C 580.41 345.55 643.17 474.86 708.00 603.00
C 715.00 602.52 721.22 605.46 728.22 604.78 C 735.22 604.10 740.06 607.69 743.00 611.00
C 732.14 589.75 722.88 567.62 713.00 546.00
C 708.43 536.01 703.95 525.09 699.00 515.00
C 698.66 514.32 698.34 513.66 698.00 513.00
C 692.04 501.34 686.56 489.13 682.00 477.00
C 720.27 482.06 758.03 489.64 794.00 503.00
C 793.97 492.34 791.60 482.29 790.00 472.00
C 779.56 469.20 770.39 464.94 759.78 462.22 C 749.17 459.50 737.83 457.32 726.99 455.01 C 716.16 452.69 703.84 450.93 692.93 449.07 C 682.02 447.22 667.12 450.20 663.08 438.92 C 659.03 427.65 653.19 422.13 650.00 411.00
C 694.58 415.00 738.96 420.30 781.00 434.00
C 778.81 422.57 773.17 412.10 770.00 401.00
C 726.48 390.03 681.64 383.81 636.00 381.00
C 630.46 369.25 623.83 357.98 619.00 346.00
C 620.00 346.00 621.00 346.00 622.00 346.00
C 624.55 345.35 627.25 346.83 629.00 347.00
C 670.01 347.82 709.84 353.75 749.00 362.00
C 742.21 351.96 736.99 346.50 729.75 336.25 C 722.50 326.00 708.73 326.90 696.33 324.67 C 683.93 322.44 669.32 321.27 656.00 320.00 C 642.68 318.73 626.99 316.57 613.00 317.00
C 610.09 317.00 607.22 317.41 605.00 316.00
C 600.35 313.03 599.71 304.36 596.23 299.77 C 592.75 295.18 590.71 287.12 588.00 282.00
C 592.00 282.00 596.00 282.00 600.00 282.00
C 603.43 282.00 607.31 282.74 610.00 283.00
C 634.03 283.00 658.76 286.69 681.00 289.00
C 666.10 277.26 653.85 272.42 636.92 263.08 C 620.00 253.74 595.30 252.97 575.00 254.00
C 567.94 237.15 558.08 220.98 551.00 204.00
C 710.57 217.39 833.98 369.49 827.00 527.00 C 820.03 684.51 684.83 825.91 523.00 824.00
C 516.39 824.64 508.54 824.63 502.00 824.00
C 342.82 824.00 210.41 679.63 205.07 524.93 C 199.74 370.23 321.72 216.28 481.00 204.00
C 477.30 214.78 471.81 222.52 467.23 233.23 C 462.65 243.94 458.49 256.16 445.00 254.00 C 431.51 251.84 417.38 254.85 405.93 257.93 C 394.48 261.00 387.04 267.15 376.92 271.92 C 366.81 276.70 359.58 283.59 350.00 289.00
C 372.56 288.29 396.92 282.41 421.00 283.00 Z"/>
</g>
<g fill="None" fill-opacity="0.0" stroke="#051012" stroke-opacity="1.00" stroke-width="0.3"><path d="
M 502.00 824.00 
C 509.00 824.00 516.00 824.00 523.00 824.00
C 684.83 825.91 820.03 684.51 827.00 527.00 C 833.98 369.49 710.57 217.39 551.00 204.00
C 558.08 220.98 567.94 237.15 575.00 254.00
C 595.30 252.97 620.00 253.74 636.92 263.08 C 653.85 272.42 666.10 277.26 681.00 289.00
C 658.76 286.69 634.03 283.00 610.00 283.00
C 606.58 283.00 602.69 282.26 600.00 282.00
C 596.00 282.00 592.00 282.00 588.00 282.00
C 590.71 287.12 592.75 295.18 596.23 299.77 C 599.71 304.36 600.35 313.03 605.00 316.00
C 606.33 316.57 611.96 316.90 613.00 317.00
C 626.99 316.57 642.68 318.73 656.00 320.00 C 669.32 321.27 683.93 322.44 696.33 324.67 C 708.73 326.90 722.50 326.00 729.75 336.25 C 736.99 346.50 742.21 351.96 749.00 362.00
C 709.84 353.75 670.01 347.82 629.00 347.00
C 627.40 346.97 622.63 345.89 622.00 346.00
C 621.00 346.00 620.00 346.00 619.00 346.00
C 623.83 357.98 630.46 369.25 636.00 381.00
C 681.64 383.81 726.48 390.03 770.00 401.00
C 773.17 412.10 778.81 422.57 781.00 434.00
C 738.96 420.30 694.58 415.00 650.00 411.00
C 653.19 422.13 659.03 427.65 663.08 438.92 C 667.12 450.20 682.02 447.22 692.93 449.07 C 703.84 450.93 716.16 452.69 726.99 455.01 C 737.83 457.32 749.17 459.50 759.78 462.22 C 770.39 464.94 779.56 469.20 790.00 472.00
C 791.60 482.29 793.97 492.34 794.00 503.00
C 758.03 489.64 720.27 482.06 682.00 477.00
C 686.56 489.13 692.04 501.34 698.00 513.00
C 698.32 512.71 703.71 514.94 704.00 515.00
C 734.58 516.04 763.94 529.87 792.00 540.00
C 792.16 549.29 789.82 557.94 789.00 567.00
C 764.38 558.82 738.40 547.43 713.00 546.00
C 722.88 567.62 732.14 589.75 743.00 611.00
C 748.15 621.08 757.78 635.81 759.00 647.00
C 759.91 655.33 746.42 667.44 742.00 674.00
C 739.52 666.38 734.54 659.65 732.00 652.00
C 724.75 635.60 716.62 618.64 708.00 603.00
C 643.17 474.86 580.41 345.55 517.00 217.00
C 451.85 345.49 387.04 476.49 323.00 606.00
C 315.36 621.45 306.89 637.04 300.00 653.00
C 296.92 660.14 292.99 666.86 290.00 674.00
C 283.10 668.52 279.34 658.48 274.00 651.00
C 270.29 644.10 277.96 636.49 280.31 629.31 C 282.65 622.12 287.73 614.62 291.00 608.00
C 301.00 587.78 309.01 566.19 319.00 546.00
C 317.93 543.98 307.61 547.51 303.99 547.99 C 300.38 548.47 292.74 551.47 288.32 552.32 C 283.90 553.17 278.50 555.49 273.78 556.78 C 269.05 558.06 263.61 560.03 258.92 561.92 C 254.24 563.82 248.91 565.55 244.00 567.00
C 241.95 558.11 240.27 549.11 239.00 540.00
C 269.18 526.91 301.07 518.08 334.00 514.00
C 339.89 502.08 345.64 489.95 351.00 478.00
C 311.87 480.68 274.29 490.10 238.00 503.00
C 240.05 494.01 236.19 475.38 245.31 470.31 C 254.42 465.23 265.00 464.36 274.99 460.99 C 284.98 457.63 296.85 456.85 307.33 454.33 C 317.81 451.81 330.30 450.67 341.00 449.00 C 351.70 447.33 366.29 450.14 369.70 438.70 C 373.10 427.25 379.33 423.11 382.00 412.00
C 336.91 413.38 293.46 421.58 251.00 433.00
C 257.06 422.53 255.15 404.42 267.93 399.93 C 280.70 395.43 294.24 393.89 307.99 390.99 C 321.74 388.09 337.53 386.48 352.00 385.00 C 366.47 383.52 382.16 381.43 397.00 381.00
C 401.54 369.05 409.01 358.13 413.00 346.00
C 368.81 347.96 325.56 353.72 283.00 362.00
C 294.67 351.07 296.91 332.88 313.78 328.78 C 330.65 324.67 351.67 322.85 369.93 320.93 C 388.19 319.00 409.14 316.56 428.00 316.00
C 433.52 304.72 439.64 293.67 444.00 282.00
C 440.00 282.00 436.00 282.00 432.00 282.00
C 428.92 282.30 424.75 283.00 421.00 283.00
C 396.92 282.41 372.56 288.29 350.00 289.00
C 359.58 283.59 366.81 276.70 376.92 271.92 C 387.04 267.15 394.48 261.00 405.93 257.93 C 417.38 254.85 431.51 251.84 445.00 254.00 C 458.49 256.16 462.65 243.94 467.23 233.23 C 471.81 222.52 477.30 214.78 481.00 204.00
C 321.72 216.28 199.74 370.23 205.07 524.93 C 210.41 679.63 342.82 824.00 502.00 824.00
M 616.00 495.00 
C 633.51 530.40 651.41 566.43 669.00 602.00
C 673.86 611.83 679.07 622.02 684.00 632.00
C 690.26 644.66 696.66 658.17 703.00 671.00
C 706.17 677.41 709.29 684.63 713.00 691.00
C 716.00 696.17 721.17 703.56 715.25 708.25 C 709.32 712.94 708.03 719.39 701.00 722.00
C 696.50 711.42 691.05 701.29 686.00 691.00
C 682.83 683.99 679.34 676.98 676.00 670.00
C 670.08 657.62 663.64 645.04 657.00 633.00
C 651.39 622.82 646.33 612.43 641.00 602.00
C 622.54 565.88 604.93 529.26 587.00 493.00
C 564.08 446.65 539.93 399.67 516.00 354.00
C 487.34 407.60 462.41 462.02 434.00 516.00
C 419.82 544.99 405.76 574.12 391.00 603.00
C 385.90 612.99 380.87 623.05 376.00 633.00
C 369.54 646.21 361.56 659.16 355.00 672.00
C 352.28 677.32 350.56 683.52 348.00 689.00
C 342.89 699.93 335.14 709.65 331.00 721.00
C 322.91 714.64 306.24 702.86 318.00 693.00
C 321.90 686.69 324.61 679.63 328.00 673.00
C 333.96 661.34 340.31 649.51 346.00 638.00
C 351.26 627.37 356.86 616.39 362.00 606.00
C 376.47 576.73 391.64 547.05 406.00 518.00
C 442.97 443.24 478.62 367.02 517.00 293.00
C 548.95 360.98 583.41 427.22 616.00 495.00
M 517.00 431.00 
C 543.23 484.79 570.17 538.34 597.00 592.00
C 543.33 592.00 489.67 592.00 436.00 592.00
C 462.38 538.24 488.74 483.53 517.00 431.00
M 421.00 673.00 
C 417.87 679.62 414.40 686.35 411.00 693.00
C 407.26 700.32 403.51 707.57 400.00 715.00
C 395.64 724.22 390.65 733.36 385.00 742.00
C 377.07 739.70 368.51 743.32 360.00 742.00
C 363.09 733.55 368.10 724.92 372.00 717.00
C 375.70 709.27 380.08 701.42 384.00 694.00
C 387.71 686.98 391.54 679.00 395.00 672.00
C 399.06 663.79 401.13 658.20 405.77 649.77 C 410.41 641.34 425.79 646.19 435.00 645.00
C 431.56 654.84 425.45 663.56 421.00 673.00
M 637.00 671.00 
C 640.63 677.65 644.52 684.97 648.00 692.00
C 651.85 699.78 656.10 708.11 660.00 716.00
C 664.11 724.30 670.06 732.71 672.00 742.00
C 664.32 739.29 649.03 744.81 644.23 737.77 C 639.43 730.73 637.49 723.05 633.00 716.00
C 629.00 708.08 625.08 699.99 621.00 692.00
C 617.59 685.33 614.40 678.66 611.00 672.00
C 606.38 662.95 601.21 654.28 597.00 645.00
C 605.71 646.49 621.21 641.23 625.92 649.08 C 630.64 656.92 633.83 662.73 637.00 671.00
M 622.00 772.00 
C 555.92 798.26 475.63 799.40 410.00 771.00
C 427.63 735.67 447.06 700.73 464.00 665.00
C 475.97 665.19 489.15 664.75 501.00 665.00 C 512.85 665.25 527.69 664.53 539.00 665.00 C 550.31 665.47 566.11 661.38 570.92 671.08 C 575.74 680.77 580.01 686.97 583.78 696.22 C 587.54 705.47 592.54 712.48 596.77 721.23 C 601.00 729.98 605.16 738.03 609.31 746.70 C 613.45 755.36 618.69 763.06 622.00 772.00 Z"/>
</g>
<g fill="None" fill-opacity="0.0" stroke="#686E6E" stroke-opacity="1.00" stroke-width="0.3"><path d="
M 421.00 283.00 
C 424.75 283.00 428.92 282.30 432.00 282.00
C 428.25 282.00 424.08 282.70 421.00 283.00 Z"/>
</g>
<g fill="None" fill-opacity="0.0" stroke="#6B6F72" stroke-opacity="1.00" stroke-width="0.3"><path d="
M 610.00 283.00 
C 607.31 282.74 603.43 282.00 600.00 282.00
C 602.69 282.26 606.58 283.00 610.00 283.00 Z"/>
</g>
<g fill="None" fill-opacity="0.0" stroke="#F8F9F9" stroke-opacity="1.00" stroke-width="0.3"><path d="
M 406.00 518.00 
C 412.52 512.43 426.33 515.60 434.00 516.00
C 462.41 462.02 487.34 407.60 516.00 354.00
C 539.93 399.67 564.08 446.65 587.00 493.00
C 589.53 494.20 595.10 490.82 599.00 492.00 C 602.90 493.18 608.62 491.38 612.00 491.00
C 611.77 492.97 614.41 496.84 616.00 495.00
C 583.41 427.22 548.95 360.98 517.00 293.00
C 478.62 367.02 442.97 443.24 406.00 518.00 Z"/>
</g>
<g fill="None" fill-opacity="0.0" stroke="#727679" stroke-opacity="1.00" stroke-width="0.3"><path d="
M 613.00 317.00 
C 611.96 316.90 606.33 316.57 605.00 316.00
C 607.22 317.41 610.09 317.00 613.00 317.00 Z"/>
</g>
<g fill="None" fill-opacity="0.0" stroke="#7B8083" stroke-opacity="1.00" stroke-width="0.3"><path d="
M 629.00 347.00 
C 627.25 346.83 624.55 345.35 622.00 346.00
C 622.63 345.89 627.40 346.97 629.00 347.00 Z"/>
</g>
<g fill="None" fill-opacity="0.0" stroke="#FCFCFB" stroke-opacity="1.00" stroke-width="0.3"><path d="
M 517.00 431.00 
C 488.74 483.53 462.38 538.24 436.00 592.00
C 489.67 592.00 543.33 592.00 597.00 592.00
C 570.17 538.34 543.23 484.79 517.00 431.00 Z"/>
</g>
<g fill="None" fill-opacity="0.0" stroke="#D9DBDC" stroke-opacity="1.00" stroke-width="0.3"><path d="
M 587.00 493.00 
C 604.93 529.26 622.54 565.88 641.00 602.00
C 643.87 604.05 651.71 603.24 655.00 603.00 C 658.29 602.76 667.35 604.69 669.00 602.00
C 651.41 566.43 633.51 530.40 616.00 495.00
C 614.41 496.84 611.77 492.97 612.00 491.00
C 608.62 491.38 602.90 493.18 599.00 492.00 C 595.10 490.82 589.53 494.20 587.00 493.00 Z"/>
</g>
<g fill="None" fill-opacity="0.0" stroke="#6F6F79" stroke-opacity="1.00" stroke-width="0.3"><path d="
M 699.00 515.00 
C 699.98 515.56 702.84 514.96 704.00 515.00
C 703.71 514.94 698.32 512.71 698.00 513.00
C 698.34 513.66 698.66 514.32 699.00 515.00 Z"/>
</g>
<g fill="None" fill-opacity="0.0" stroke="#929394" stroke-opacity="1.00" stroke-width="0.3"><path d="
M 319.00 546.00 
C 324.10 535.68 329.01 524.66 334.00 514.00
C 301.07 518.08 269.18 526.91 239.00 540.00
C 240.27 549.11 241.95 558.11 244.00 567.00
C 248.91 565.55 254.24 563.82 258.92 561.92 C 263.61 560.03 269.05 558.06 273.78 556.78 C 278.50 555.49 283.90 553.17 288.32 552.32 C 292.74 551.47 300.38 548.47 303.99 547.99 C 307.61 547.51 317.93 543.98 319.00 546.00 Z"/>
</g>
<g fill="None" fill-opacity="0.0" stroke="#D5D6D7" stroke-opacity="1.00" stroke-width="0.3"><path d="
M 406.00 518.00 
C 391.64 547.05 376.47 576.73 362.00 606.00
C 367.99 601.89 384.07 607.95 391.00 603.00
C 405.76 574.12 419.82 544.99 434.00 516.00
C 426.33 515.60 412.52 512.43 406.00 518.00 Z"/>
</g>
<g fill="None" fill-opacity="0.0" stroke="#929395" stroke-opacity="1.00" stroke-width="0.3"><path d="
M 713.00 546.00 
C 738.40 547.43 764.38 558.82 789.00 567.00
C 789.82 557.94 792.16 549.29 792.00 540.00
C 763.94 529.87 734.58 516.04 704.00 515.00
C 702.84 514.96 699.98 515.56 699.00 515.00
C 703.95 525.09 708.43 536.01 713.00 546.00 Z"/>
</g>
<g fill="None" fill-opacity="0.0" stroke="#9D9FA0" stroke-opacity="1.00" stroke-width="0.3"><path d="
M 657.00 633.00 
C 663.94 637.62 675.79 630.82 683.00 635.00
C 683.57 634.06 684.15 633.18 684.00 632.00
C 679.07 622.02 673.86 611.83 669.00 602.00
C 667.35 604.69 658.29 602.76 655.00 603.00 C 651.71 603.24 643.87 604.05 641.00 602.00
C 646.33 612.43 651.39 622.82 657.00 633.00 Z"/>
</g>
<g fill="None" fill-opacity="0.0" stroke="#97989A" stroke-opacity="1.00" stroke-width="0.3"><path d="
M 362.00 606.00 
C 356.86 616.39 351.26 627.37 346.00 638.00
C 354.00 632.51 369.20 640.58 376.00 633.00
C 380.87 623.05 385.90 612.99 391.00 603.00
C 384.07 607.95 367.99 601.89 362.00 606.00 Z"/>
</g>
<g fill="None" fill-opacity="0.0" stroke="#D6D7D8" stroke-opacity="1.00" stroke-width="0.3"><path d="
M 732.00 652.00 
C 735.16 653.40 743.25 649.98 747.00 651.00 C 750.75 652.02 758.24 650.42 759.00 647.00
C 757.78 635.81 748.15 621.08 743.00 611.00
C 740.06 607.69 735.22 604.10 728.22 604.78 C 721.22 605.46 715.00 602.52 708.00 603.00
C 716.62 618.64 724.75 635.60 732.00 652.00 Z"/>
</g>
<g fill="None" fill-opacity="0.0" stroke="#D7D9D9" stroke-opacity="1.00" stroke-width="0.3"><path d="
M 291.00 608.00 
C 287.73 614.62 282.65 622.12 280.31 629.31 C 277.96 636.49 270.29 644.10 274.00 651.00
C 280.63 655.87 293.02 648.63 300.00 653.00
C 306.89 637.04 315.36 621.45 323.00 606.00
C 322.20 603.57 308.47 605.92 305.07 606.07 C 301.68 606.23 291.62 607.54 291.00 608.00 Z"/>
</g>
<g fill="None" fill-opacity="0.0" stroke="#7B7D80" stroke-opacity="1.00" stroke-width="0.3"><path d="
M 657.00 633.00 
C 663.64 645.04 670.08 657.62 676.00 670.00
C 683.24 673.31 696.07 668.32 703.00 671.00
C 696.66 658.17 690.26 644.66 684.00 632.00
C 684.15 633.18 683.57 634.06 683.00 635.00
C 675.79 630.82 663.94 637.62 657.00 633.00 Z"/>
</g>
<g fill="None" fill-opacity="0.0" stroke="#787A7C" stroke-opacity="1.00" stroke-width="0.3"><path d="
M 346.00 638.00 
C 340.31 649.51 333.96 661.34 328.00 673.00
C 334.91 668.31 348.53 673.96 355.00 672.00
C 361.56 659.16 369.54 646.21 376.00 633.00
C 369.20 640.58 354.00 632.51 346.00 638.00 Z"/>
</g>
<g fill="None" fill-opacity="0.0" stroke="#B7B7B9" stroke-opacity="1.00" stroke-width="0.3"><path d="
M 395.00 672.00 
C 397.66 670.85 405.23 671.97 408.00 672.00 C 410.77 672.03 419.49 670.51 421.00 673.00
C 425.45 663.56 431.56 654.84 435.00 645.00
C 425.79 646.19 410.41 641.34 405.77 649.77 C 401.13 658.20 399.06 663.79 395.00 672.00 Z"/>
</g>
<g fill="None" fill-opacity="0.0" stroke="#BCBDBF" stroke-opacity="1.00" stroke-width="0.3"><path d="
M 611.00 672.00 
C 617.79 675.36 631.79 668.81 637.00 671.00
C 633.83 662.73 630.64 656.92 625.92 649.08 C 621.21 641.23 605.71 646.49 597.00 645.00
C 601.21 654.28 606.38 662.95 611.00 672.00 Z"/>
</g>
<g fill="None" fill-opacity="0.0" stroke="#787A7C" stroke-opacity="1.00" stroke-width="0.3"><path d="
M 732.00 652.00 
C 734.54 659.65 739.52 666.38 742.00 674.00
C 746.42 667.44 759.91 655.33 759.00 647.00
C 758.24 650.42 750.75 652.02 747.00 651.00 C 743.25 649.98 735.16 653.40 732.00 652.00 Z"/>
</g>
<g fill="None" fill-opacity="0.0" stroke="#797B7D" stroke-opacity="1.00" stroke-width="0.3"><path d="
M 300.00 653.00 
C 293.02 648.63 280.63 655.87 274.00 651.00
C 279.34 658.48 283.10 668.52 290.00 674.00
C 292.99 666.86 296.92 660.14 300.00 653.00 Z"/>
</g>
<g fill="None" fill-opacity="0.0" stroke="#F4F5F5" stroke-opacity="1.00" stroke-width="0.3"><path d="
M 622.00 772.00 
C 618.69 763.06 613.45 755.36 609.31 746.70 C 605.16 738.03 601.00 729.98 596.77 721.23 C 592.54 712.48 587.54 705.47 583.78 696.22 C 580.01 686.97 575.74 680.77 570.92 671.08 C 566.11 661.38 550.31 665.47 539.00 665.00 C 527.69 664.53 512.85 665.25 501.00 665.00 C 489.15 664.75 475.97 665.19 464.00 665.00
C 447.06 700.73 427.63 735.67 410.00 771.00
C 475.63 799.40 555.92 798.26 622.00 772.00 Z"/>
</g>
<g fill="None" fill-opacity="0.0" stroke="#555A5D" stroke-opacity="1.00" stroke-width="0.3"><path d="
M 686.00 691.00 
C 688.69 693.23 695.60 692.31 699.01 692.99 C 702.42 693.68 712.03 694.13 713.00 691.00
C 709.29 684.63 706.17 677.41 703.00 671.00
C 696.07 668.32 683.24 673.31 676.00 670.00
C 679.34 676.98 682.83 683.99 686.00 691.00 Z"/>
</g>
<g fill="None" fill-opacity="0.0" stroke="#555A5D" stroke-opacity="1.00" stroke-width="0.3"><path d="
M 328.00 673.00 
C 324.61 679.63 321.90 686.69 318.00 693.00
C 318.69 696.28 325.97 693.14 330.00 694.00 C 334.03 694.86 340.59 691.79 345.00 693.00
C 345.99 691.67 346.05 689.43 348.00 689.00
C 350.56 683.52 352.28 677.32 355.00 672.00
C 348.53 673.96 334.91 668.31 328.00 673.00 Z"/>
</g>
<g fill="None" fill-opacity="0.0" stroke="#9A9B9D" stroke-opacity="1.00" stroke-width="0.3"><path d="
M 611.00 672.00 
C 614.40 678.66 617.59 685.33 621.00 692.00
C 628.28 695.60 640.52 688.77 648.00 692.00
C 644.52 684.97 640.63 677.65 637.00 671.00
C 631.79 668.81 617.79 675.36 611.00 672.00 Z"/>
</g>
<g fill="None" fill-opacity="0.0" stroke="#959797" stroke-opacity="1.00" stroke-width="0.3"><path d="
M 384.00 694.00 
C 390.81 688.99 403.52 692.83 411.00 693.00
C 414.40 686.35 417.87 679.62 421.00 673.00
C 419.49 670.51 410.77 672.03 408.00 672.00 C 405.23 671.97 397.66 670.85 395.00 672.00
C 391.54 679.00 387.71 686.98 384.00 694.00 Z"/>
</g>
<g fill="None" fill-opacity="0.0" stroke="#252D30" stroke-opacity="1.00" stroke-width="0.3"><path d="
M 318.00 693.00 
C 306.24 702.86 322.91 714.64 331.00 721.00
C 335.14 709.65 342.89 699.93 348.00 689.00
C 346.05 689.43 345.99 691.67 345.00 693.00
C 340.59 691.79 334.03 694.86 330.00 694.00 C 325.97 693.14 318.69 696.28 318.00 693.00 Z"/>
</g>
<g fill="None" fill-opacity="0.0" stroke="#262F32" stroke-opacity="1.00" stroke-width="0.3"><path d="
M 713.00 691.00 
C 712.03 694.13 702.42 693.68 699.01 692.99 C 695.60 692.31 688.69 693.23 686.00 691.00
C 691.05 701.29 696.50 711.42 701.00 722.00
C 708.03 719.39 709.32 712.94 715.25 708.25 C 721.17 703.56 716.00 696.17 713.00 691.00 Z"/>
</g>
<g fill="None" fill-opacity="0.0" stroke="#5F6366" stroke-opacity="1.00" stroke-width="0.3"><path d="
M 384.00 694.00 
C 380.08 701.42 375.70 709.27 372.00 717.00
C 373.41 719.60 382.47 715.97 386.00 717.00 C 389.53 718.03 397.59 717.38 400.00 715.00
C 403.51 707.57 407.26 700.32 411.00 693.00
C 403.52 692.83 390.81 688.99 384.00 694.00 Z"/>
</g>
<g fill="None" fill-opacity="0.0" stroke="#636769" stroke-opacity="1.00" stroke-width="0.3"><path d="
M 633.00 716.00 
C 635.65 717.99 642.85 717.33 646.00 717.00 C 649.15 716.67 658.35 718.69 660.00 716.00
C 656.10 708.11 651.85 699.78 648.00 692.00
C 640.52 688.77 628.28 695.60 621.00 692.00
C 625.08 699.99 629.00 708.08 633.00 716.00 Z"/>
</g>
<g fill="None" fill-opacity="0.0" stroke="#323A3E" stroke-opacity="1.00" stroke-width="0.3"><path d="
M 372.00 717.00 
C 368.10 724.92 363.09 733.55 360.00 742.00
C 368.51 743.32 377.07 739.70 385.00 742.00
C 390.65 733.36 395.64 724.22 400.00 715.00
C 397.59 717.38 389.53 718.03 386.00 717.00 C 382.47 715.97 373.41 719.60 372.00 717.00 Z"/>
</g>
<g fill="None" fill-opacity="0.0" stroke="#343B3F" stroke-opacity="1.00" stroke-width="0.3"><path d="
M 660.00 716.00 
C 658.35 718.69 649.15 716.67 646.00 717.00 C 642.85 717.33 635.65 717.99 633.00 716.00
C 637.49 723.05 639.43 730.73 644.23 737.77 C 649.03 744.81 664.32 739.29 672.00 742.00
C 670.06 732.71 664.11 724.30 660.00 716.00 Z"/>
</g>
<g fill="None" fill-opacity="0.0" stroke="#656A6A" stroke-opacity="1.00" stroke-width="0.3"><path d="
M 523.00 824.00 
C 516.00 824.00 509.00 824.00 502.00 824.00
C 508.54 824.63 516.39 824.64 523.00 824.00 Z"/>
</g>
<g fill="#FEFEFE" fill-opacity="1.00" stroke="None">
<path d="
M 0.00 1024.00 
L 1024.00 1024.00
L 1024.00 0.00
L 0.00 0.00
L 0.00 1024.00
M 421.00 283.00 
C 424.08 282.70 428.25 282.00 432.00 282.00
C 436.00 282.00 440.00 282.00 444.00 282.00
C 439.64 293.67 433.52 304.72 428.00 316.00
C 409.14 316.56 388.19 319.00 369.93 320.93 C 351.67 322.85 330.65 324.67 313.78 328.78 C 296.91 332.88 294.67 351.07 283.00 362.00
C 325.56 353.72 368.81 347.96 413.00 346.00
C 409.01 358.13 401.54 369.05 397.00 381.00
C 382.16 381.43 366.47 383.52 352.00 385.00 C 337.53 386.48 321.74 388.09 307.99 390.99 C 294.24 393.89 280.70 395.43 267.93 399.93 C 255.15 404.42 257.06 422.53 251.00 433.00
C 293.46 421.58 336.91 413.38 382.00 412.00
C 379.33 423.11 373.10 427.25 369.70 438.70 C 366.29 450.14 351.70 447.33 341.00 449.00 C 330.30 450.67 317.81 451.81 307.33 454.33 C 296.85 456.85 284.98 457.63 274.99 460.99 C 265.00 464.36 254.42 465.23 245.31 470.31 C 236.19 475.38 240.05 494.01 238.00 503.00
C 274.29 490.10 311.87 480.68 351.00 478.00
C 345.64 489.95 339.89 502.08 334.00 514.00
C 329.01 524.66 324.10 535.68 319.00 546.00
C 309.01 566.19 301.00 587.78 291.00 608.00
C 291.62 607.54 301.68 606.23 305.07 606.07 C 308.47 605.92 322.20 603.57 323.00 606.00
C 387.04 476.49 451.85 345.49 517.00 217.00
C 580.41 345.55 643.17 474.86 708.00 603.00
C 715.00 602.52 721.22 605.46 728.22 604.78 C 735.22 604.10 740.06 607.69 743.00 611.00
C 732.14 589.75 722.88 567.62 713.00 546.00
C 708.43 536.01 703.95 525.09 699.00 515.00
C 698.66 514.32 698.34 513.66 698.00 513.00
C 692.04 501.34 686.56 489.13 682.00 477.00
C 720.27 482.06 758.03 489.64 794.00 503.00
C 793.97 492.34 791.60 482.29 790.00 472.00
C 779.56 469.20 770.39 464.94 759.78 462.22 C 749.17 459.50 737.83 457.32 726.99 455.01 C 716.16 452.69 703.84 450.93 692.93 449.07 C 682.02 447.22 667.12 450.20 663.08 438.92 C 659.03 427.65 653.19 422.13 650.00 411.00
C 694.58 415.00 738.96 420.30 781.00 434.00
C 778.81 422.57 773.17 412.10 770.00 401.00
C 726.48 390.03 681.64 383.81 636.00 381.00
C 630.46 369.25 623.83 357.98 619.00 346.00
C 620.00 346.00 621.00 346.00 622.00 346.00
C 624.55 345.35 627.25 346.83 629.00 347.00
C 670.01 347.82 709.84 353.75 749.00 362.00
C 742.21 351.96 736.99 346.50 729.75 336.25 C 722.50 326.00 708.73 326.90 696.33 324.67 C 683.93 322.44 669.32 321.27 656.00 320.00 C 642.68 318.73 626.99 316.57 613.00 317.00
C 610.09 317.00 607.22 317.41 605.00 316.00
C 600.35 313.03 599.71 304.36 596.23 299.77 C 592.75 295.18 590.71 287.12 588.00 282.00
C 592.00 282.00 596.00 282.00 600.00 282.00
C 603.43 282.00 607.31 282.74 610.00 283.00
C 634.03 283.00 658.76 286.69 681.00 289.00
C 666.10 277.26 653.85 272.42 636.92 263.08 C 620.00 253.74 595.30 252.97 575.00 254.00
C 567.94 237.15 558.08 220.98 551.00 204.00
C 710.57 217.39 833.98 369.49 827.00 527.00 C 820.03 684.51 684.83 825.91 523.00 824.00
C 516.39 824.64 508.54 824.63 502.00 824.00
C 342.82 824.00 210.41 679.63 205.07 524.93 C 199.74 370.23 321.72 216.28 481.00 204.00
C 477.30 214.78 471.81 222.52 467.23 233.23 C 462.65 243.94 458.49 256.16 445.00 254.00 C 431.51 251.84 417.38 254.85 405.93 257.93 C 394.48 261.00 387.04 267.15 376.92 271.92 C 366.81 276.70 359.58 283.59 350.00 289.00
C 372.56 288.29 396.92 282.41 421.00 283.00 Z"/>
</g>
<g fill="#051012" fill-opacity="1.00" stroke="None">
<path d="
M 502.00 824.00 
C 509.00 824.00 516.00 824.00 523.00 824.00
C 684.83 825.91 820.03 684.51 827.00 527.00 C 833.98 369.49 710.57 217.39 551.00 204.00
C 558.08 220.98 567.94 237.15 575.00 254.00
C 595.30 252.97 620.00 253.74 636.92 263.08 C 653.85 272.42 666.10 277.26 681.00 289.00
C 658.76 286.69 634.03 283.00 610.00 283.00
C 606.58 283.00 602.69 282.26 600.00 282.00
C 596.00 282.00 592.00 282.00 588.00 282.00
C 590.71 287.12 592.75 295.18 596.23 299.77 C 599.71 304.36 600.35 313.03 605.00 316.00
C 606.33 316.57 611.96 316.90 613.00 317.00
C 626.99 316.57 642.68 318.73 656.00 320.00 C 669.32 321.27 683.93 322.44 696.33 324.67 C 708.73 326.90 722.50 326.00 729.75 336.25 C 736.99 346.50 742.21 351.96 749.00 362.00
C 709.84 353.75 670.01 347.82 629.00 347.00
C 627.40 346.97 622.63 345.89 622.00 346.00
C 621.00 346.00 620.00 346.00 619.00 346.00
C 623.83 357.98 630.46 369.25 636.00 381.00
C 681.64 383.81 726.48 390.03 770.00 401.00
C 773.17 412.10 778.81 422.57 781.00 434.00
C 738.96 420.30 694.58 415.00 650.00 411.00
C 653.19 422.13 659.03 427.65 663.08 438.92 C 667.12 450.20 682.02 447.22 692.93 449.07 C 703.84 450.93 716.16 452.69 726.99 455.01 C 737.83 457.32 749.17 459.50 759.78 462.22 C 770.39 464.94 779.56 469.20 790.00 472.00
C 791.60 482.29 793.97 492.34 794.00 503.00
C 758.03 489.64 720.27 482.06 682.00 477.00
C 686.56 489.13 692.04 501.34 698.00 513.00
C 698.32 512.71 703.71 514.94 704.00 515.00
C 734.58 516.04 763.94 529.87 792.00 540.00
C 792.16 549.29 789.82 557.94 789.00 567.00
C 764.38 558.82 738.40 547.43 713.00 546.00
C 722.88 567.62 732.14 589.75 743.00 611.00
C 748.15 621.08 757.78 635.81 759.00 647.00
C 759.91 655.33 746.42 667.44 742.00 674.00
C 739.52 666.38 734.54 659.65 732.00 652.00
C 724.75 635.60 716.62 618.64 708.00 603.00
C 643.17 474.86 580.41 345.55 517.00 217.00
C 451.85 345.49 387.04 476.49 323.00 606.00
C 315.36 621.45 306.89 637.04 300.00 653.00
C 296.92 660.14 292.99 666.86 290.00 674.00
C 283.10 668.52 279.34 658.48 274.00 651.00
C 270.29 644.10 277.96 636.49 280.31 629.31 C 282.65 622.12 287.73 614.62 291.00 608.00
C 301.00 587.78 309.01 566.19 319.00 546.00
C 317.93 543.98 307.61 547.51 303.99 547.99 C 300.38 548.47 292.74 551.47 288.32 552.32 C 283.90 553.17 278.50 555.49 273.78 556.78 C 269.05 558.06 263.61 560.03 258.92 561.92 C 254.24 563.82 248.91 565.55 244.00 567.00
C 241.95 558.11 240.27 549.11 239.00 540.00
C 269.18 526.91 301.07 518.08 334.00 514.00
C 339.89 502.08 345.64 489.95 351.00 478.00
C 311.87 480.68 274.29 490.10 238.00 503.00
C 240.05 494.01 236.19 475.38 245.31 470.31 C 254.42 465.23 265.00 464.36 274.99 460.99 C 284.98 457.63 296.85 456.85 307.33 454.33 C 317.81 451.81 330.30 450.67 341.00 449.00 C 351.70 447.33 366.29 450.14 369.70 438.70 C 373.10 427.25 379.33 423.11 382.00 412.00
C 336.91 413.38 293.46 421.58 251.00 433.00
C 257.06 422.53 255.15 404.42 267.93 399.93 C 280.70 395.43 294.24 393.89 307.99 390.99 C 321.74 388.09 337.53 386.48 352.00 385.00 C 366.47 383.52 382.16 381.43 397.00 381.00
C 401.54 369.05 409.01 358.13 413.00 346.00
C 368.81 347.96 325.56 353.72 283.00 362.00
C 294.67 351.07 296.91 332.88 313.78 328.78 C 330.65 324.67 351.67 322.85 369.93 320.93 C 388.19 319.00 409.14 316.56 428.00 316.00
C 433.52 304.72 439.64 293.67 444.00 282.00
C 440.00 282.00 436.00 282.00 432.00 282.00
C 428.92 282.30 424.75 283.00 421.00 283.00
C 396.92 282.41 372.56 288.29 350.00 289.00
C 359.58 283.59 366.81 276.70 376.92 271.92 C 387.04 267.15 394.48 261.00 405.93 257.93 C 417.38 254.85 431.51 251.84 445.00 254.00 C 458.49 256.16 462.65 243.94 467.23 233.23 C 471.81 222.52 477.30 214.78 481.00 204.00
C 321.72 216.28 199.74 370.23 205.07 524.93 C 210.41 679.63 342.82 824.00 502.00 824.00
M 616.00 495.00 
C 633.51 530.40 651.41 566.43 669.00 602.00
C 673.86 611.83 679.07 622.02 684.00 632.00
C 690.26 644.66 696.66 658.17 703.00 671.00
C 706.17 677.41 709.29 684.63 713.00 691.00
C 716.00 696.17 721.17 703.56 715.25 708.25 C 709.32 712.94 708.03 719.39 701.00 722.00
C 696.50 711.42 691.05 701.29 686.00 691.00
C 682.83 683.99 679.34 676.98 676.00 670.00
C 670.08 657.62 663.64 645.04 657.00 633.00
C 651.39 622.82 646.33 612.43 641.00 602.00
C 622.54 565.88 604.93 529.26 587.00 493.00
C 564.08 446.65 539.93 399.67 516.00 354.00
C 487.34 407.60 462.41 462.02 434.00 516.00
C 419.82 544.99 405.76 574.12 391.00 603.00
C 385.90 612.99 380.87 623.05 376.00 633.00
C 369.54 646.21 361.56 659.16 355.00 672.00
C 352.28 677.32 350.56 683.52 348.00 689.00
C 342.89 699.93 335.14 709.65 331.00 721.00
C 322.91 714.64 306.24 702.86 318.00 693.00
C 321.90 686.69 324.61 679.63 328.00 673.00
C 333.96 661.34 340.31 649.51 346.00 638.00
C 351.26 627.37 356.86 616.39 362.00 606.00
C 376.47 576.73 391.64 547.05 406.00 518.00
C 442.97 443.24 478.62 367.02 517.00 293.00
C 548.95 360.98 583.41 427.22 616.00 495.00
M 517.00 431.00 
C 543.23 484.79 570.17 538.34 597.00 592.00
C 543.33 592.00 489.67 592.00 436.00 592.00
C 462.38 538.24 488.74 483.53 517.00 431.00
M 421.00 673.00 
C 417.87 679.62 414.40 686.35 411.00 693.00
C 407.26 700.32 403.51 707.57 400.00 715.00
C 395.64 724.22 390.65 733.36 385.00 742.00
C 377.07 739.70 368.51 743.32 360.00 742.00
C 363.09 733.55 368.10 724.92 372.00 717.00
C 375.70 709.27 380.08 701.42 384.00 694.00
C 387.71 686.98 391.54 679.00 395.00 672.00
C 399.06 663.79 401.13 658.20 405.77 649.77 C 410.41 641.34 425.79 646.19 435.00 645.00
C 431.56 654.84 425.45 663.56 421.00 673.00
M 637.00 671.00 
C 640.63 677.65 644.52 684.97 648.00 692.00
C 651.85 699.78 656.10 708.11 660.00 716.00
C 664.11 724.30 670.06 732.71 672.00 742.00
C 664.32 739.29 649.03 744.81 644.23 737.77 C 639.43 730.73 637.49 723.05 633.00 716.00
C 629.00 708.08 625.08 699.99 621.00 692.00
C 617.59 685.33 614.40 678.66 611.00 672.00
C 606.38 662.95 601.21 654.28 597.00 645.00
C 605.71 646.49 621.21 641.23 625.92 649.08 C 630.64 656.92 633.83 662.73 637.00 671.00
M 622.00 772.00 
C 555.92 798.26 475.63 799.40 410.00 771.00
C 427.63 735.67 447.06 700.73 464.00 665.00
C 475.97 665.19 489.15 664.75 501.00 665.00 C 512.85 665.25 527.69 664.53 539.00 665.00 C 550.31 665.47 566.11 661.38 570.92 671.08 C 575.74 680.77 580.01 686.97 583.78 696.22 C 587.54 705.47 592.54 712.48 596.77 721.23 C 601.00 729.98 605.16 738.03 609.31 746.70 C 613.45 755.36 618.69 763.06 622.00 772.00 Z"/>
</g>
<g fill="#686E6E" fill-opacity="1.00" stroke="None">
<path d="
M 421.00 283.00 
C 424.75 283.00 428.92 282.30 432.00 282.00
C 428.25 282.00 424.08 282.70 421.00 283.00 Z"/>
</g>
<g fill="#6B6F72" fill-opacity="1.00" stroke="None">
<path d="
M 610.00 283.00 
C 607.31 282.74 603.43 282.00 600.00 282.00
C 602.69 282.26 606.58 283.00 610.00 283.00 Z"/>
</g>
<g fill="#F8F9F9" fill-opacity="1.00" stroke="None">
<path d="
M 406.00 518.00 
C 412.52 512.43 426.33 515.60 434.00 516.00
C 462.41 462.02 487.34 407.60 516.00 354.00
C 539.93 399.67 564.08 446.65 587.00 493.00
C 589.53 494.20 595.10 490.82 599.00 492.00 C 602.90 493.18 608.62 491.38 612.00 491.00
C 611.77 492.97 614.41 496.84 616.00 495.00
C 583.41 427.22 548.95 360.98 517.00 293.00
C 478.62 367.02 442.97 443.24 406.00 518.00 Z"/>
</g>
<g fill="#727679" fill-opacity="1.00" stroke="None">
<path d="
M 613.00 317.00 
C 611.96 316.90 606.33 316.57 605.00 316.00
C 607.22 317.41 610.09 317.00 613.00 317.00 Z"/>
</g>
<g fill="#7B8083" fill-opacity="1.00" stroke="None">
<path d="
M 629.00 347.00 
C 627.25 346.83 624.55 345.35 622.00 346.00
C 622.63 345.89 627.40 346.97 629.00 347.00 Z"/>
</g>
<g fill="#FCFCFB" fill-opacity="1.00" stroke="None">
<path d="
M 517.00 431.00 
C 488.74 483.53 462.38 538.24 436.00 592.00
C 489.67 592.00 543.33 592.00 597.00 592.00
C 570.17 538.34 543.23 484.79 517.00 431.00 Z"/>
</g>
<g fill="#D9DBDC" fill-opacity="1.00" stroke="None">
<path d="
M 587.00 493.00 
C 604.93 529.26 622.54 565.88 641.00 602.00
C 643.87 604.05 651.71 603.24 655.00 603.00 C 658.29 602.76 667.35 604.69 669.00 602.00
C 651.41 566.43 633.51 530.40 616.00 495.00
C 614.41 496.84 611.77 492.97 612.00 491.00
C 608.62 491.38 602.90 493.18 599.00 492.00 C 595.10 490.82 589.53 494.20 587.00 493.00 Z"/>
</g>
<g fill="#6F6F79" fill-opacity="1.00" stroke="None">
<path d="
M 699.00 515.00 
C 699.98 515.56 702.84 514.96 704.00 515.00
C 703.71 514.94 698.32 512.71 698.00 513.00
C 698.34 513.66 698.66 514.32 699.00 515.00 Z"/>
</g>
<g fill="#929394" fill-opacity="1.00" stroke="None">
<path d="
M 319.00 546.00 
C 324.10 535.68 329.01 524.66 334.00 514.00
C 301.07 518.08 269.18 526.91 239.00 540.00
C 240.27 549.11 241.95 558.11 244.00 567.00
C 248.91 565.55 254.24 563.82 258.92 561.92 C 263.61 560.03 269.05 558.06 273.78 556.78 C 278.50 555.49 283.90 553.17 288.32 552.32 C 292.74 551.47 300.38 548.47 303.99 547.99 C 307.61 547.51 317.93 543.98 319.00 546.00 Z"/>
</g>
<g fill="#D5D6D7" fill-opacity="1.00" stroke="None">
<path d="
M 406.00 518.00 
C 391.64 547.05 376.47 576.73 362.00 606.00
C 367.99 601.89 384.07 607.95 391.00 603.00
C 405.76 574.12 419.82 544.99 434.00 516.00
C 426.33 515.60 412.52 512.43 406.00 518.00 Z"/>
</g>
<g fill="#929395" fill-opacity="1.00" stroke="None">
<path d="
M 713.00 546.00 
C 738.40 547.43 764.38 558.82 789.00 567.00
C 789.82 557.94 792.16 549.29 792.00 540.00
C 763.94 529.87 734.58 516.04 704.00 515.00
C 702.84 514.96 699.98 515.56 699.00 515.00
C 703.95 525.09 708.43 536.01 713.00 546.00 Z"/>
</g>
<g fill="#9D9FA0" fill-opacity="1.00" stroke="None">
<path d="
M 657.00 633.00 
C 663.94 637.62 675.79 630.82 683.00 635.00
C 683.57 634.06 684.15 633.18 684.00 632.00
C 679.07 622.02 673.86 611.83 669.00 602.00
C 667.35 604.69 658.29 602.76 655.00 603.00 C 651.71 603.24 643.87 604.05 641.00 602.00
C 646.33 612.43 651.39 622.82 657.00 633.00 Z"/>
</g>
<g fill="#97989A" fill-opacity="1.00" stroke="None">
<path d="
M 362.00 606.00 
C 356.86 616.39 351.26 627.37 346.00 638.00
C 354.00 632.51 369.20 640.58 376.00 633.00
C 380.87 623.05 385.90 612.99 391.00 603.00
C 384.07 607.95 367.99 601.89 362.00 606.00 Z"/>
</g>
<g fill="#D6D7D8" fill-opacity="1.00" stroke="None">
<path d="
M 732.00 652.00 
C 735.16 653.40 743.25 649.98 747.00 651.00 C 750.75 652.02 758.24 650.42 759.00 647.00
C 757.78 635.81 748.15 621.08 743.00 611.00
C 740.06 607.69 735.22 604.10 728.22 604.78 C 721.22 605.46 715.00 602.52 708.00 603.00
C 716.62 618.64 724.75 635.60 732.00 652.00 Z"/>
</g>
<g fill="#D7D9D9" fill-opacity="1.00" stroke="None">
<path d="
M 291.00 608.00 
C 287.73 614.62 282.65 622.12 280.31 629.31 C 277.96 636.49 270.29 644.10 274.00 651.00
C 280.63 655.87 293.02 648.63 300.00 653.00
C 306.89 637.04 315.36 621.45 323.00 606.00
C 322.20 603.57 308.47 605.92 305.07 606.07 C 301.68 606.23 291.62 607.54 291.00 608.00 Z"/>
</g>
<g fill="#7B7D80" fill-opacity="1.00" stroke="None">
<path d="
M 657.00 633.00 
C 663.64 645.04 670.08 657.62 676.00 670.00
C 683.24 673.31 696.07 668.32 703.00 671.00
C 696.66 658.17 690.26 644.66 684.00 632.00
C 684.15 633.18 683.57 634.06 683.00 635.00
C 675.79 630.82 663.94 637.62 657.00 633.00 Z"/>
</g>
<g fill="#787A7C" fill-opacity="1.00" stroke="None">
<path d="
M 346.00 638.00 
C 340.31 649.51 333.96 661.34 328.00 673.00
C 334.91 668.31 348.53 673.96 355.00 672.00
C 361.56 659.16 369.54 646.21 376.00 633.00
C 369.20 640.58 354.00 632.51 346.00 638.00 Z"/>
</g>
<g fill="#B7B7B9" fill-opacity="1.00" stroke="None">
<path d="
M 395.00 672.00 
C 397.66 670.85 405.23 671.97 408.00 672.00 C 410.77 672.03 419.49 670.51 421.00 673.00
C 425.45 663.56 431.56 654.84 435.00 645.00
C 425.79 646.19 410.41 641.34 405.77 649.77 C 401.13 658.20 399.06 663.79 395.00 672.00 Z"/>
</g>
<g fill="#BCBDBF" fill-opacity="1.00" stroke="None">
<path d="
M 611.00 672.00 
C 617.79 675.36 631.79 668.81 637.00 671.00
C 633.83 662.73 630.64 656.92 625.92 649.08 C 621.21 641.23 605.71 646.49 597.00 645.00
C 601.21 654.28 606.38 662.95 611.00 672.00 Z"/>
</g>
<g fill="#787A7C" fill-opacity="1.00" stroke="None">
<path d="
M 732.00 652.00 
C 734.54 659.65 739.52 666.38 742.00 674.00
C 746.42 667.44 759.91 655.33 759.00 647.00
C 758.24 650.42 750.75 652.02 747.00 651.00 C 743.25 649.98 735.16 653.40 732.00 652.00 Z"/>
</g>
<g fill="#797B7D" fill-opacity="1.00" stroke="None">
<path d="
M 300.00 653.00 
C 293.02 648.63 280.63 655.87 274.00 651.00
C 279.34 658.48 283.10 668.52 290.00 674.00
C 292.99 666.86 296.92 660.14 300.00 653.00 Z"/>
</g>
<g fill="#F4F5F5" fill-opacity="1.00" stroke="None">
<path d="
M 622.00 772.00 
C 618.69 763.06 613.45 755.36 609.31 746.70 C 605.16 738.03 601.00 729.98 596.77 721.23 C 592.54 712.48 587.54 705.47 583.78 696.22 C 580.01 686.97 575.74 680.77 570.92 671.08 C 566.11 661.38 550.31 665.47 539.00 665.00 C 527.69 664.53 512.85 665.25 501.00 665.00 C 489.15 664.75 475.97 665.19 464.00 665.00
C 447.06 700.73 427.63 735.67 410.00 771.00
C 475.63 799.40 555.92 798.26 622.00 772.00 Z"/>
</g>
<g fill="#555A5D" fill-opacity="1.00" stroke="None">
<path d="
M 686.00 691.00 
C 688.69 693.23 695.60 692.31 699.01 692.99 C 702.42 693.68 712.03 694.13 713.00 691.00
C 709.29 684.63 706.17 677.41 703.00 671.00
C 696.07 668.32 683.24 673.31 676.00 670.00
C 679.34 676.98 682.83 683.99 686.00 691.00 Z"/>
</g>
<g fill="#555A5D" fill-opacity="1.00" stroke="None">
<path d="
M 328.00 673.00 
C 324.61 679.63 321.90 686.69 318.00 693.00
C 318.69 696.28 325.97 693.14 330.00 694.00 C 334.03 694.86 340.59 691.79 345.00 693.00
C 345.99 691.67 346.05 689.43 348.00 689.00
C 350.56 683.52 352.28 677.32 355.00 672.00
C 348.53 673.96 334.91 668.31 328.00 673.00 Z"/>
</g>
<g fill="#9A9B9D" fill-opacity="1.00" stroke="None">
<path d="
M 611.00 672.00 
C 614.40 678.66 617.59 685.33 621.00 692.00
C 628.28 695.60 640.52 688.77 648.00 692.00
C 644.52 684.97 640.63 677.65 637.00 671.00
C 631.79 668.81 617.79 675.36 611.00 672.00 Z"/>
</g>
<g fill="#959797" fill-opacity="1.00" stroke="None">
<path d="
M 384.00 694.00 
C 390.81 688.99 403.52 692.83 411.00 693.00
C 414.40 686.35 417.87 679.62 421.00 673.00
C 419.49 670.51 410.77 672.03 408.00 672.00 C 405.23 671.97 397.66 670.85 395.00 672.00
C 391.54 679.00 387.71 686.98 384.00 694.00 Z"/>
</g>
<g fill="#252D30" fill-opacity="1.00" stroke="None">
<path d="
M 318.00 693.00 
C 306.24 702.86 322.91 714.64 331.00 721.00
C 335.14 709.65 342.89 699.93 348.00 689.00
C 346.05 689.43 345.99 691.67 345.00 693.00
C 340.59 691.79 334.03 694.86 330.00 694.00 C 325.97 693.14 318.69 696.28 318.00 693.00 Z"/>
</g>
<g fill="#262F32" fill-opacity="1.00" stroke="None">
<path d="
M 713.00 691.00 
C 712.03 694.13 702.42 693.68 699.01 692.99 C 695.60 692.31 688.69 693.23 686.00 691.00
C 691.05 701.29 696.50 711.42 701.00 722.00
C 708.03 719.39 709.32 712.94 715.25 708.25 C 721.17 703.56 716.00 696.17 713.00 691.00 Z"/>
</g>
<g fill="#5F6366" fill-opacity="1.00" stroke="None">
<path d="
M 384.00 694.00 
C 380.08 701.42 375.70 709.27 372.00 717.00
C 373.41 719.60 382.47 715.97 386.00 717.00 C 389.53 718.03 397.59 717.38 400.00 715.00
C 403.51 707.57 407.26 700.32 411.00 693.00
C 403.52 692.83 390.81 688.99 384.00 694.00 Z"/>
</g>
<g fill="#636769" fill-opacity="1.00" stroke="None">
<path d="
M 633.00 716.00 
C 635.65 717.99 642.85 717.33 646.00 717.00 C 649.15 716.67 658.35 718.69 660.00 716.00
C 656.10 708.11 651.85 699.78 648.00 692.00
C 640.52 688.77 628.28 695.60 621.00 692.00
C 625.08 699.99 629.00 708.08 633.00 716.00 Z"/>
</g>
<g fill="#323A3E" fill-opacity="1.00" stroke="None">
<path d="
M 372.00 717.00 
C 368.10 724.92 363.09 733.55 360.00 742.00
C 368.51 743.32 377.07 739.70 385.00 742.00
C 390.65 733.36 395.64 724.22 400.00 715.00
C 397.59 717.38 389.53 718.03 386.00 717.00 C 382.47 715.97 373.41 719.60 372.00 717.00 Z"/>
</g>
<g fill="#343B3F" fill-opacity="1.00" stroke="None">
<path d="
M 660.00 716.00 
C 658.35 718.69 649.15 716.67 646.00 717.00 C 642.85 717.33 635.65 717.99 633.00 716.00
C 637.49 723.05 639.43 730.73 644.23 737.77 C 649.03 744.81 664.32 739.29 672.00 742.00
C 670.06 732.71 664.11 724.30 660.00 716.00 Z"/>
</g>
<g fill="#656A6A" fill-opacity="1.00" stroke="None">
<path d="
M 523.00 824.00 
C 516.00 824.00 509.00 824.00 502.00 824.00
C 508.54 824.63 516.39 824.64 523.00 824.00 Z"/>
</g>
</svg>